Again i didnot rip this just uploading SAiNTS is the original team/person that uploaded here is the video info

Complete name : Nip.Tuck.S05E02.Joyce.&.Sharon.Monroe.DVDRip.XviD-SAiNTS - [C7-117].avi
Format                           : AVI
Format/Info                      : Audio Video Interleave
File size                        : 350 MiB
Duration                         : 43mn 43s
Overall bit rate                 : 1 119 Kbps
Writing application              : VirtualDubMod 1.5.10.2 (build 2540/release)
Writing library                  : VirtualDubMod build 2540/release

Video
Format                           : MPEG-4 Visual
Format profile                   : Streaming Video@L1
Format settings, BVOP            : Yes
Format settings, QPel            : No
Format settings, GMC             : No warppoints
Format settings, Matrix          : Default (H.263)
Muxing mode                      : Packed bitstream
Codec ID                         : XVID
Codec ID/Hint                    : XviD
Duration                         : 43mn 43s
Bit rate                         : 974 Kbps
Width                            : 640 pixels
Height                           : 352 pixels
Display aspect ratio             : 16/9
Frame rate                       : 25.000 fps
Resolution                       : 24 bits
Colorimetry                      : 4:2:0
Scan type                        : Progressive
Bits/(Pixel*Frame)               : 0.173
Stream size                      : 305 MiB (87%)
Writing library                  : XviD 1.1.2 (UTC 2006-11-01)

Audio
Format                           : MPEG Audio
Format version                   : Version 1
Format profile                   : Layer 3
Codec ID                         : 55
Codec ID/Hint                    : MP3
Duration                         : 43mn 43s
Bit rate mode                    : Variable
Bit rate                         : 132 Kbps
Nominal bit rate                 : 128 Kbps
Channel(s)                       : 2 channels
Sampling rate                    : 48.0 KHz
Resolution                       : 16 bits
Stream size                      : 41.2 MiB (12%)
Alignment                        : Aligned on interleaves
Interleave, duration             : 24 ms (0.60 video frame)
Interleave, preload duration     : 139 ms
Writing library                  : LAME3.96r
Encoding settings                : -m j -V 4 -q 3 -lowpass 17.5 --abr 128

and ill still be uploading the first episode but at lower speed and i know you guys read it all the time but if you like a show plz SEEEED!! Dont just hit N' run